<svg width="129" height="38" viewBox="0 0 129 38" fill="none" xmlns="http://www.w3.org/2000/svg">
<path d="M46.9336 20.6748C47.0557 21.6074 47.3584 22.2935 47.8418 22.7329C48.3252 23.1675 49.0283 23.3848 49.9512 23.3848C50.9131 23.3848 51.6724 23.0137 52.229 22.2715C52.7856 21.5293 53.064 20.5356 53.064 19.2905V19.0269H48.6108V18.2578H53.064V17.9941C53.064 16.7588 52.7783 15.7773 52.207 15.0498C51.6357 14.3223 50.8643 13.9585 49.8926 13.9585C48.1445 13.9585 47.1582 14.8643 46.9336 16.6758H46.0327C46.1401 15.5723 46.5283 14.7153 47.1973 14.105C47.8662 13.4946 48.7646 13.1895 49.8926 13.1895C51.1182 13.1895 52.1021 13.6289 52.8442 14.5078C53.5913 15.3818 53.9648 16.5684 53.9648 18.0674V19.3418C53.9648 20.2891 53.7964 21.1313 53.4595 21.8687C53.1274 22.6011 52.6562 23.165 52.0459 23.5605C51.4404 23.9512 50.7422 24.1465 49.9512 24.1465C48.8086 24.1465 47.8979 23.8462 47.2192 23.2456C46.5405 22.645 46.145 21.7881 46.0327 20.6748H46.9336ZM61.9775 16.0752V24H61.0986V16.8296H57.854L57.7148 19.7959C57.6562 20.8945 57.5464 21.7344 57.3853 22.3154C57.2241 22.8916 56.9849 23.3164 56.6675 23.5898C56.3501 23.8633 55.9277 24 55.4004 24H55.0635V23.2236L55.3345 23.209C55.8374 23.1992 56.1987 22.9551 56.4185 22.4766C56.6382 21.998 56.7822 21.1436 56.8506 19.9131L57.0117 16.0752H61.9775ZM67.4048 24.1465C66.731 24.1465 66.1206 23.9805 65.5737 23.6484C65.0317 23.3164 64.6094 22.855 64.3066 22.2642C64.0039 21.6685 63.8525 21.002 63.8525 20.2646V19.9497C63.8525 19.188 63.999 18.502 64.292 17.8916C64.5898 17.2812 65.0024 16.8027 65.5298 16.4561C66.0571 16.1045 66.6284 15.9287 67.2437 15.9287C68.2056 15.9287 68.9673 16.2583 69.5288 16.9175C70.0952 17.5718 70.3784 18.4678 70.3784 19.6055V20.0962H64.7241V20.2646C64.7241 21.1631 64.9805 21.9126 65.4932 22.5132C66.0107 23.1089 66.6602 23.4067 67.4414 23.4067C67.9102 23.4067 68.3228 23.3213 68.6792 23.1504C69.0405 22.9795 69.3677 22.7061 69.6606 22.3301L70.21 22.7476C69.5654 23.6802 68.6304 24.1465 67.4048 24.1465ZM67.2437 16.6758C66.5845 16.6758 66.0278 16.9175 65.5737 17.4009C65.1245 17.8843 64.8511 18.5337 64.7534 19.3491H69.5068V19.2539C69.4824 18.4922 69.2651 17.8721 68.855 17.3936C68.4448 16.915 67.9077 16.6758 67.2437 16.6758ZM74.2383 20.3672H73.0225V24H72.1362V16.0752H73.0225V19.5908H74.2236L77.1313 16.0752H78.2373L74.9854 19.9204L78.5962 24H77.439L74.2383 20.3672ZM85.5542 16.8223H82.6685V24H81.7896V16.8223H79.0137V16.0752H85.5542V16.8223ZM93.3691 20.1182C93.3691 21.3535 93.0957 22.335 92.5488 23.0625C92.002 23.7852 91.2695 24.1465 90.3516 24.1465C89.2676 24.1465 88.4375 23.7656 87.8613 23.0039V27.0469H86.9897V16.0752H87.8027L87.8467 17.1958C88.418 16.3511 89.2456 15.9287 90.3296 15.9287C91.2769 15.9287 92.019 16.2876 92.5562 17.0054C93.0981 17.7231 93.3691 18.7192 93.3691 19.9937V20.1182ZM92.4902 19.9644C92.4902 18.9536 92.2827 18.1553 91.8677 17.5693C91.4526 16.9834 90.874 16.6904 90.1318 16.6904C89.5947 16.6904 89.1333 16.8198 88.7476 17.0786C88.3618 17.3374 88.0664 17.7134 87.8613 18.2065V22.0078C88.0713 22.4619 88.3716 22.8086 88.7622 23.0479C89.1528 23.2871 89.6143 23.4067 90.1465 23.4067C90.8838 23.4067 91.4575 23.1138 91.8677 22.5278C92.2827 21.937 92.4902 21.0825 92.4902 19.9644ZM94.834 19.9204C94.834 19.1587 94.9805 18.4727 95.2734 17.8623C95.5713 17.252 95.9888 16.7783 96.5259 16.4414C97.0679 16.0996 97.6807 15.9287 98.3643 15.9287C99.4189 15.9287 100.273 16.2998 100.928 17.042C101.582 17.7793 101.909 18.7583 101.909 19.979V20.1621C101.909 20.9287 101.76 21.6196 101.462 22.2349C101.169 22.8452 100.754 23.3164 100.217 23.6484C99.6802 23.9805 99.0674 24.1465 98.3789 24.1465C97.3291 24.1465 96.4746 23.7778 95.8154 23.0405C95.1611 22.2983 94.834 21.3169 94.834 20.0962V19.9204ZM95.7129 20.1621C95.7129 21.1094 95.957 21.8882 96.4453 22.4985C96.9385 23.104 97.583 23.4067 98.3789 23.4067C99.1699 23.4067 99.8096 23.104 100.298 22.4985C100.791 21.8882 101.038 21.085 101.038 20.0889V19.9204C101.038 19.3149 100.925 18.7607 100.701 18.2578C100.476 17.7549 100.161 17.3667 99.7559 17.0933C99.3506 16.8149 98.8867 16.6758 98.3643 16.6758C97.583 16.6758 96.9458 16.9834 96.4526 17.5986C95.9595 18.209 95.7129 19.0098 95.7129 20.001V20.1621ZM109.812 24H108.933V20.3672H104.663V24H103.784V16.0752H104.663V19.6274H108.933V16.0752H109.812V24ZM117.371 16.0752H118.25V24H117.371V17.4888L113.093 24H112.222V16.0752H113.093V22.5938L117.371 16.0752ZM122.754 20.3672H121.538V24H120.652V16.0752H121.538V19.5908H122.739L125.647 16.0752H126.753L123.501 19.9204L127.112 24H125.955L122.754 20.3672Z" fill="black"/>
<path d="M37.4432 18.4434H28.4807V17.1769H30.8988C31.2062 17.1769 31.4554 16.9277 31.4554 16.6203C31.4554 16.3129 31.2062 16.0636 30.8988 16.0636H28.4807V14.7971H30.1595C30.785 14.7971 31.373 14.5536 31.8152 14.1113L35.4761 10.4504C35.7146 10.5692 35.9791 10.6325 36.2534 10.6325C36.7199 10.6325 37.1585 10.4508 37.4884 10.121C37.8183 9.79107 38 9.35251 38 8.88597C38 8.41943 37.8183 7.98088 37.4884 7.65098C37.1585 7.32108 36.7199 7.13939 36.2534 7.13939C35.7868 7.13939 35.3483 7.32108 35.0184 7.6509C34.6885 7.9808 34.5068 8.41936 34.5068 8.8859C34.5068 9.16021 34.57 9.42465 34.6888 9.66319L31.0279 13.3241C30.796 13.556 30.4876 13.6838 30.1594 13.6838H28.4806V12.4557C28.4806 10.8365 27.1633 9.51928 25.5442 9.51928H24.3161V4.59154C25.0069 4.35857 25.5059 3.70493 25.5059 2.93647C25.5059 1.97341 24.7224 1.18996 23.7594 1.18996C22.7965 1.18996 22.0129 1.97349 22.0129 2.93647C22.0129 3.70493 22.512 4.3585 23.2028 4.59154V9.5192H21.9363V7.10109C21.9363 6.79368 21.6871 6.54445 21.3797 6.54445C21.0723 6.54445 20.8231 6.79368 20.8231 7.10109V9.5192H19.5565V0.55673C19.5565 0.249317 19.3073 9.15527e-05 18.9999 9.15527e-05C18.6925 9.15527e-05 18.4432 0.249317 18.4432 0.55673V9.5192H17.1768V7.10109C17.1768 6.79368 16.9276 6.54445 16.6201 6.54445C16.3127 6.54445 16.0635 6.79368 16.0635 7.10109V9.5192H14.797V7.84046C14.797 7.21502 14.5535 6.62698 14.1112 6.18479L10.449 2.52263C10.7725 1.86943 10.6641 1.05496 10.1209 0.511679C9.43988 -0.169275 8.33187 -0.169201 7.65091 0.511679C6.96996 1.19263 6.96996 2.30064 7.65091 2.98167C7.99143 3.32211 8.43867 3.49237 8.88591 3.49237C9.1522 3.49237 9.41806 3.43054 9.66186 3.30979L13.324 6.97203C13.556 7.20396 13.6838 7.51241 13.6838 7.84046V9.5192H12.4556C12.2073 9.5192 11.9604 9.55037 11.7217 9.61175C11.424 9.68835 11.2448 9.99183 11.3214 10.2896C11.398 10.5874 11.7015 10.7666 11.9992 10.6899C12.1473 10.6519 12.3008 10.6325 12.4555 10.6325H25.5442C26.5495 10.6325 27.3673 11.4504 27.3673 12.4556V25.5444C27.3673 25.699 27.348 25.8524 27.31 26.0003C27.2335 26.2981 27.4128 26.6015 27.7105 26.678C27.757 26.6899 27.8036 26.6957 27.8495 26.6957C28.0975 26.6957 28.3236 26.5287 28.3882 26.2774C28.4495 26.039 28.4806 25.7923 28.4806 25.5443V24.3161H33.4083C33.6413 25.007 34.2949 25.506 35.0634 25.506C36.0264 25.506 36.8099 24.7226 36.8099 23.7595C36.8099 22.7964 36.0263 22.013 35.0634 22.013C34.2949 22.013 33.6413 22.512 33.4083 23.2029H28.4806V21.9363H30.8987C31.2061 21.9363 31.4554 21.6871 31.4554 21.3797C31.4554 21.0723 31.2061 20.823 30.8987 20.823H28.4806V19.5567H37.4432C37.7506 19.5567 37.9998 19.3074 37.9998 19C37.9998 18.6926 37.7506 18.4434 37.4432 18.4434ZM35.8055 8.43821C35.9252 8.31857 36.0842 8.25274 36.2533 8.25274C36.4224 8.25274 36.5814 8.31857 36.7011 8.43821C36.8207 8.55785 36.8865 8.71683 36.8865 8.88597C36.8865 9.05512 36.8207 9.21409 36.7011 9.33373C36.5814 9.45337 36.4224 9.5192 36.2533 9.5192C36.0842 9.5192 35.9252 9.45337 35.8055 9.33373C35.6859 9.21409 35.6201 9.05512 35.6201 8.88597C35.6201 8.71683 35.6859 8.55778 35.8055 8.43821ZM9.33359 2.19451C9.08674 2.44129 8.685 2.44136 8.438 2.19443C8.19108 1.94751 8.19108 1.54577 8.438 1.29891C8.5615 1.17542 8.72359 1.11374 8.88583 1.11374C9.048 1.11374 9.21017 1.17549 9.33359 1.29891C9.58052 1.54584 9.58052 1.94758 9.33359 2.19451ZM23.7594 3.5697C23.4103 3.5697 23.1262 3.28559 23.1262 2.93647C23.1262 2.58735 23.4102 2.30324 23.7594 2.30324C24.1086 2.30324 24.3927 2.58735 24.3927 2.93647C24.3927 3.28559 24.1086 3.5697 23.7594 3.5697ZM35.0634 23.1263C35.4126 23.1263 35.6967 23.4105 35.6967 23.7596C35.6967 24.1088 35.4126 24.3928 35.0634 24.3928C34.7143 24.3928 34.4302 24.1087 34.4302 23.7596C34.4301 23.4104 34.7142 23.1263 35.0634 23.1263Z" fill="black"/>
<path d="M30.349 35.0184C29.8058 34.4751 28.9912 34.3667 28.338 34.6902L24.6759 31.028C24.4439 30.7961 24.3161 30.4876 24.3161 30.1596V28.4808H25.5443C25.7925 28.4808 26.0394 28.4496 26.278 28.3883C26.5757 28.3117 26.7549 28.0082 26.6783 27.7104C26.6018 27.4127 26.2984 27.2335 26.0005 27.3101C25.8525 27.3482 25.699 27.3675 25.5443 27.3675H12.4556C11.4503 27.3675 10.6325 26.5496 10.6325 25.5444V12.4556C10.6325 12.3009 10.6518 12.1474 10.6898 11.9995C10.7665 11.7018 10.5873 11.3983 10.2896 11.3216C9.99181 11.245 9.68833 11.4242 9.61174 11.7219C9.55028 11.9604 9.51919 12.2073 9.51919 12.4556V13.6838H4.59145C4.35848 12.993 3.70484 12.4939 2.93638 12.4939C1.97332 12.4939 1.18987 13.2774 1.18987 14.2404C1.18987 15.2035 1.97339 15.9869 2.93638 15.9869C3.70484 15.9869 4.3584 15.4879 4.59145 14.7971H9.51911V16.0636H7.101C6.79359 16.0636 6.54436 16.3128 6.54436 16.6202C6.54436 16.9277 6.79359 17.1769 7.101 17.1769H9.51911V18.4434H0.556638C0.249226 18.4434 0 18.6926 0 19C0 19.3074 0.249226 19.5566 0.556638 19.5566H9.51911V20.8231H7.101C6.79359 20.8231 6.54436 21.0723 6.54436 21.3797C6.54436 21.6871 6.79359 21.9364 7.101 21.9364H9.51911V23.2029H7.84029C7.21485 23.2029 6.62682 23.4464 6.18462 23.8887L2.52372 27.5496C2.28519 27.4308 2.02075 27.3675 1.74643 27.3675C1.2799 27.3675 0.84134 27.5492 0.511439 27.879C0.181687 28.2089 0 28.6476 0 29.114C0 29.5805 0.181687 30.0191 0.511588 30.349C0.841415 30.6789 1.28005 30.8605 1.74658 30.8605C2.21312 30.8605 2.65168 30.6789 2.98158 30.349C3.31148 30.0191 3.49317 29.5806 3.49317 29.114C3.49317 28.8397 3.42993 28.5753 3.31111 28.3367L6.97201 24.6758C7.20394 24.4439 7.51239 24.3161 7.84051 24.3161H9.51933V25.5443C9.51933 27.1634 10.8366 28.4807 12.4557 28.4807H13.6839V33.4083C12.9931 33.6413 12.494 34.2949 12.494 35.0634C12.494 36.0265 13.2775 36.8099 14.2405 36.8099C15.2035 36.8099 15.987 36.0264 15.987 35.0634C15.987 34.2949 15.488 33.6414 14.7972 33.4083V28.4807H16.0636V30.8988C16.0636 31.2062 16.3128 31.4554 16.6203 31.4554C16.9277 31.4554 17.1769 31.2062 17.1769 30.8988V28.4807H18.4433V37.4433C18.4433 37.7507 18.6925 37.9999 18.9999 37.9999C19.3073 37.9999 19.5566 37.7507 19.5566 37.4433V28.4808H20.823V30.8989C20.823 31.2063 21.0723 31.4556 21.3797 31.4556C21.6871 31.4556 21.9363 31.2063 21.9363 30.8989V28.4808H23.2028V30.1596C23.2028 30.785 23.4464 31.373 23.8886 31.8152L27.5508 35.4774C27.2273 36.1306 27.3357 36.9451 27.879 37.4883C28.2194 37.8288 28.6667 37.999 29.114 37.999C29.5612 37.999 30.0085 37.8288 30.349 37.4883C31.0299 36.8074 31.0299 35.6994 30.349 35.0184ZM2.93638 14.8737C2.58718 14.8737 2.30315 14.5896 2.30315 14.2404C2.30315 13.8912 2.58726 13.6072 2.93638 13.6072C3.2855 13.6072 3.56961 13.8913 3.56961 14.2404C3.56969 14.5896 3.28558 14.8737 2.93638 14.8737ZM2.19427 29.5618C2.07463 29.6814 1.91565 29.7473 1.74651 29.7473C1.57736 29.7473 1.41839 29.6814 1.29875 29.5618C1.17911 29.4422 1.11328 29.2832 1.11328 29.114C1.11328 28.9449 1.17911 28.7859 1.29875 28.6663C1.41839 28.5466 1.57736 28.4808 1.74651 28.4808C1.91565 28.4808 2.07463 28.5466 2.19427 28.6663C2.31391 28.7859 2.37974 28.9449 2.37974 29.114C2.37974 29.2832 2.31391 29.4422 2.19427 29.5618ZM14.8736 35.0635C14.8736 35.4127 14.5896 35.6968 14.2404 35.6968C13.8912 35.6968 13.6071 35.4127 13.6071 35.0635C13.6071 34.7144 13.8912 34.4303 14.2404 34.4303C14.5895 34.4303 14.8736 34.7144 14.8736 35.0635ZM29.5618 36.7012C29.3149 36.9481 28.9131 36.948 28.6662 36.7012C28.4193 36.4542 28.4193 36.0525 28.6662 35.8057C28.7897 35.6822 28.9519 35.6205 29.114 35.6205C29.2762 35.6205 29.4384 35.6822 29.5618 35.8057C29.8087 36.0525 29.8087 36.4542 29.5618 36.7012Z" fill="black"/>
<path d="M24.911 17.5128C24.911 16.3223 24.0403 15.3139 22.8483 14.9862C22.8835 14.8407 22.9031 14.691 22.9031 14.538C22.9031 13.4109 21.9027 12.494 20.6732 12.494C20.0072 12.494 19.4089 12.7633 19 13.189C18.591 12.7633 17.9927 12.494 17.3267 12.494C16.0972 12.494 15.0968 13.4109 15.0968 14.538C15.0968 14.691 15.1164 14.8407 15.1517 14.9862C13.9597 15.3138 13.0889 16.3222 13.0889 17.5128C13.0889 18.0946 13.2948 18.6435 13.6752 19.0968C13.3033 19.5783 13.0889 20.1627 13.0889 20.785C13.0888 21.7314 13.5945 22.6151 14.4275 23.1633C14.4275 23.1638 14.4275 23.1642 14.4275 23.1646C14.4275 24.4557 15.5779 25.5062 16.9921 25.5062C17.8048 25.5062 18.5298 25.1589 19 24.6187C19.4702 25.1589 20.1952 25.5062 21.0079 25.5062C22.3688 25.5062 23.485 24.5332 23.5671 23.3091C24.3937 22.8295 24.911 21.9895 24.911 21.0824C24.911 20.4151 24.6266 19.7786 24.1369 19.2976C24.6265 18.8165 24.911 18.1799 24.911 17.5128ZM22.941 19.7898C23.4774 20.0728 23.7975 20.5561 23.7975 21.0824C23.7975 21.4748 23.6152 21.849 23.3072 22.1289C23.0145 21.5871 22.4973 21.1557 21.8438 20.9504C21.5507 20.8583 21.2381 21.0214 21.1459 21.3146C21.0538 21.6079 21.2169 21.9204 21.5101 22.0125C22.0776 22.1908 22.4589 22.6539 22.4589 23.1647C22.4589 23.842 21.8079 24.393 21.0076 24.393C20.2074 24.393 19.5563 23.842 19.5563 23.1647V19.595C19.5563 18.9178 20.2074 18.3669 21.0076 18.3669C21.315 18.3669 21.5642 18.1176 21.5642 17.8102C21.5642 17.5028 21.315 17.2536 21.0076 17.2536C20.4692 17.2536 19.9693 17.4062 19.5563 17.666V16.955C19.5563 16.6476 19.3071 16.3984 18.9997 16.3984C18.6923 16.3984 18.4431 16.6476 18.4431 16.955V20.0452C18.2557 19.9277 18.0503 19.8304 17.8281 19.7605C17.5346 19.6684 17.2223 19.8315 17.1302 20.1247C17.038 20.418 17.2011 20.7304 17.4943 20.8226C18.0618 21.001 18.4431 21.464 18.4431 21.9748V23.1646C18.4431 23.8419 17.792 24.3929 16.9918 24.3929C16.1915 24.3929 15.5404 23.8419 15.5404 23.1646C15.5404 22.8744 15.6635 22.5922 15.8869 22.3701C16.1049 22.1534 16.106 21.801 15.8893 21.5829C15.6725 21.3648 15.3202 21.3638 15.1021 21.5805C14.9687 21.7132 14.8539 21.858 14.7585 22.012C14.407 21.6795 14.2018 21.2421 14.2018 20.7848C14.2018 19.9601 14.849 19.2356 15.7758 19.023C16.0754 18.9542 16.2626 18.6556 16.1939 18.356C16.1251 18.0563 15.8264 17.8692 15.5269 17.9379C15.1538 18.0235 14.8103 18.1663 14.5057 18.3539C14.3082 18.1058 14.2018 17.8153 14.2018 17.5126C14.2021 16.6754 14.9958 15.9937 15.9742 15.9873C15.9791 15.9874 15.9841 15.9881 15.989 15.9881C16.1161 15.9881 16.2438 15.9448 16.3484 15.8563C16.5618 15.6756 16.6046 15.3691 16.4613 15.1385C16.4571 15.1317 16.4533 15.1247 16.4488 15.1181C16.4465 15.1148 16.4438 15.1116 16.4414 15.1082C16.4328 15.0961 16.4239 15.0843 16.4144 15.0728C16.4141 15.0725 16.4138 15.0721 16.4135 15.0718C16.3207 14.962 16.2099 14.7803 16.2099 14.5379C16.2099 14.0247 16.7109 13.6072 17.3265 13.6072C17.9422 13.6072 18.4431 14.0247 18.4431 14.5379C18.4431 14.8453 18.6924 15.0946 18.9998 15.0946C19.3072 15.0946 19.5564 14.8453 19.5564 14.5379C19.5564 14.0247 20.0574 13.6072 20.673 13.6072C21.2887 13.6072 21.7896 14.0247 21.7896 14.5379C21.7896 14.6751 21.7537 14.7921 21.7061 14.8882C21.3895 14.9182 21.0833 14.9947 20.7926 15.1173C20.5093 15.2367 20.3765 15.5632 20.4959 15.8465C20.6154 16.1297 20.9418 16.2626 21.2251 16.1431C21.4657 16.0417 21.7246 15.9895 21.9946 15.9874C22 15.9876 22.0052 15.9881 22.0106 15.9881C22.0156 15.9881 22.0205 15.9874 22.0254 15.9873C23.0039 15.9937 23.7975 16.6754 23.7975 17.5126C23.7975 18.0389 23.4774 18.5221 22.941 18.8052C22.7584 18.9015 22.6441 19.091 22.6441 19.2975C22.6441 19.504 22.7584 19.6934 22.941 19.7898Z" fill="black"/>
</svg>
